<svg
  viewBox="0 0 24 24"
  xmlns="http://www.w3.org/2000/svg"
  xmlns:bx="https://boxy-svg.com"
  {...props}
>
  <defs>
    <clipPath id="a">
      <path
        d="M34.481-16.239 54.924-.982a1.503 1.503 0 0 0 2.391-1.022 1.493 1.493 0 0 0-.593-1.377L51.511-7.27l2.999-4-4.672-3.486 2.596-.373a.997.997 0 0 0 .644-1.606 1.001 1.001 0 0 0-.929-.371l-3.964.569a1 1 0 0 1-.401-1.953l.115-.023.991-.143a.998.998 0 1 0-.285-1.977l-8.706 1.252a7.976 7.976 0 0 0-5.266 2.945l-.152.197Zm3.075-.199.102-.066a6.016 6.016 0 0 1 2.011-.816l.303-.054.119-.019a6.007 6.007 0 0 1 4.192.993l.208.149 7.214 5.384-2.397 3.199-11.752-8.77Z"
        transform="rotate(135.291 45.903 -10.662)"
      />
    </clipPath>
  </defs>
  <path fill="none" d="M0 0h24v24H0z" />
  <path
    d="m.591 17.583 20.42-15.274c.923-.693 2.25-.124 2.388 1.023a1.497 1.497 0 0 1-.592 1.378l-5.205 3.894 2.995 4.004-4.666 3.49 2.593.374a1 1 0 1 1-.285 1.979l-3.96-.569a.999.999 0 0 0-.4 1.955l.115.023.99.143a1 1 0 1 1-.285 1.979l-8.696-1.253a7.966 7.966 0 0 1-5.26-2.949l-.152-.197Zm3.072.199.102.066a5.982 5.982 0 0 0 2.008.817l.303.054.119.019a5.986 5.986 0 0 0 4.187-.994l.208-.149 7.206-5.39-2.395-3.203-11.738 8.78Z"
    style={{
      mixBlendMode: "multiply",
    }}
  />
  <path d="m.642 17.609 20.42-15.274c.923-.693 2.25-.124 2.388 1.023a1.497 1.497 0 0 1-.592 1.378L17.653 8.63l2.995 4.004-4.666 3.49 2.593.374a1 1 0 1 1-.285 1.979l-3.96-.569a.999.999 0 0 0-.4 1.955l.115.023.99.143a1 1 0 1 1-.285 1.979l-8.696-1.253a7.966 7.966 0 0 1-5.26-2.949l-.152-.197Zm3.072.199.102.066a5.982 5.982 0 0 0 2.008.817l.303.054.119.019a5.986 5.986 0 0 0 4.187-.994l.208-.149 7.206-5.39-2.395-3.203-11.738 8.78Z" />
  <path
    d="M58.213-14.935V-.731H34.05l24.163-14.204Z"
    style={{
      fill: "#cd0000",
      fillRule: "nonzero",
      clipPath: "url(#a)",
    }}
    transform="matrix(-.70989 .70431 .70268 .71152 52.132 -12.721)"
    bx:shape="triangle 34.05 -14.935 24.163 14.204 1 0 1@9d142a7e"
  />
</svg>